HIERARCHY
ROOT joint_Root
{
	OFFSET 0.0 0.0 0.0
	CHANNELS 6 Xposition Yposition Zposition Zrotation Xrotation Yrotation 
	JOINT Hips
	{
		OFFSET -17.1583 93.1646 452.98
		CHANNELS 6 Xposition Yposition Zposition Zrotation Xrotation Yrotation 
		JOINT Spine
		{
			OFFSET 15.7357 0.0 0.0
			CHANNELS 6 Xposition Yposition Zposition Zrotation Xrotation Yrotation 
			JOINT Chest
			{
				OFFSET 8.98455 -0.406207 0.0
				CHANNELS 6 Xposition Yposition Zposition Zrotation Xrotation Yrotation 
				JOINT Neck
				{
					OFFSET 16.3773 0.0 0.0
					CHANNELS 6 Xposition Yposition Zposition Zrotation Xrotation Yrotation 
					JOINT Head
					{
						OFFSET 6.45672 0.0 0.0
						CHANNELS 6 Xposition Yposition Zposition Zrotation Xrotation Yrotation 
						End Site
						{
							OFFSET 0.0 0.0 0.0
						}
					}
				}
				JOINT Shoulder_L
				{
					OFFSET 12.9942 -0.242716 4.98039
					CHANNELS 6 Xposition Yposition Zposition Zrotation Xrotation Yrotation 
					JOINT UpperArm_L
					{
						OFFSET 5.34809 0.0 0.0
						CHANNELS 6 Xposition Yposition Zposition Zrotation Xrotation Yrotation 
						JOINT LowerArm_L
						{
							OFFSET 24.3286 1.87007e-05 0.0
							CHANNELS 6 Xposition Yposition Zposition Zrotation Xrotation Yrotation 
							JOINT Hand_L
							{
								OFFSET 22.2916 0.0 0.0
								CHANNELS 6 Xposition Yposition Zposition Zrotation Xrotation Yrotation 
								End Site
								{
									OFFSET 0.0 0.0 0.0
								}
							}
						}
					}
				}
				JOINT Shoulder_R
				{
					OFFSET 12.9945 -0.242716 -4.98039
					CHANNELS 6 Xposition Yposition Zposition Zrotation Xrotation Yrotation 
					JOINT UpperArm_R
					{
						OFFSET -5.34813 0.0 0.0
						CHANNELS 6 Xposition Yposition Zposition Zrotation Xrotation Yrotation 
						JOINT LowerArm_R
						{
							OFFSET -24.3289 0.000322201 0.0
							CHANNELS 6 Xposition Yposition Zposition Zrotation Xrotation Yrotation 
							JOINT Hand_R
							{
								OFFSET -22.2915 -0.000108084 0.0
								CHANNELS 6 Xposition Yposition Zposition Zrotation Xrotation Yrotation 
								End Site
								{
									OFFSET 0.0 0.0 0.0
								}
							}
						}
					}
				}
			}
		}
		JOINT UpperLeg_L
		{
			OFFSET -2.19248 -6.46944 0.0
			CHANNELS 6 Xposition Yposition Zposition Zrotation Xrotation Yrotation 
			JOINT LowerLeg_L
			{
				OFFSET 39.0811 0.0 -1.23785e-05
				CHANNELS 6 Xposition Yposition Zposition Zrotation Xrotation Yrotation 
				JOINT Foot_L
				{
					OFFSET 40.9854 0.0 -1.26872e-05
					CHANNELS 6 Xposition Yposition Zposition Zrotation Xrotation Yrotation 
					JOINT Toes_L
					{
						OFFSET 11.7543 0.0 0.0
						CHANNELS 6 Xposition Yposition Zposition Zrotation Xrotation Yrotation 
						End Site
						{
							OFFSET 0.0 0.0 0.0
						}
					}
				}
			}
		}
		JOINT UpperLeg_R
		{
			OFFSET -2.19251 6.46944 0.0
			CHANNELS 6 Xposition Yposition Zposition Zrotation Xrotation Yrotation 
			JOINT LowerLeg_R
			{
				OFFSET -39.0811 -0.00228153 -0.0401928
				CHANNELS 6 Xposition Yposition Zposition Zrotation Xrotation Yrotation 
				JOINT Foot_R
				{
					OFFSET -40.9854 0.0 0.0
					CHANNELS 6 Xposition Yposition Zposition Zrotation Xrotation Yrotation 
					JOINT Toes_R
					{
						OFFSET -11.7543 0.0 0.0
						CHANNELS 6 Xposition Yposition Zposition Zrotation Xrotation Yrotation 
						End Site
						{
							OFFSET 0.0 0.0 0.0
						}
					}
				}
			}
		}
	}
}
MOTION
Frames:	9
Frame Time:	0.0333333
0.000000 0.000000 0.000000 0.000000 0.000000 -0.000000 -3.609010 92.401900 -1.467470 84.823200 -3.070980 1.063950 15.735700 0.000005 -0.000001 85.253400 88.334900 -82.616900 8.984550 -0.406207 -0.000000 -4.429000 -0.555711 5.254720 16.377300 -0.000001 -0.000001 8.329420 5.767980 -9.365360 6.456720 -0.000001 -0.000000 10.844800 4.728340 -10.576200 12.994200 -0.242716 4.980390 -92.551100 7.552460 -71.273700 5.348090 -0.000007 -0.000001 -72.815700 -6.513360 -1.196800 24.328600 0.000019 0.000005 49.175000 -43.220600 -120.609000 22.291600 -0.000001 0.000005 61.773000 4.765840 11.967100 12.994500 -0.242716 -4.980390 88.209300 5.749800 -72.668600 -5.348130 -0.000001 -0.000004 -70.261000 29.682900 -2.690990 -24.328900 0.000322 -0.000009 2.479320 8.417040 -16.485100 -22.291500 -0.000108 -0.000004 0.222355 5.261310 1.132070 -2.192480 -6.469440 -0.000000 -172.305000 -1.397180 -5.629720 39.081100 -0.000007 -0.000012 0.254084 -0.531531 25.549300 40.985400 -0.000006 -0.000013 -0.929158 7.407560 -73.994100 11.754300 -0.000000 0.000003 0.000448 0.159715 -10.099200 -2.192510 6.469440 -0.000001 -170.412000 4.298540 -179.340000 -39.081100 -0.002282 -0.040193 0.084474 -0.334766 13.624800 -40.985400 0.000008 0.000006 4.292240 0.938102 -69.193800 -11.754300 -0.000006 -0.000006 -0.008133 0.256785 -6.144450
0.000000 0.000000 0.000000 0.000000 0.000000 -0.000000 -3.619650 92.405100 -1.460640 84.845500 -3.091980 1.105610 15.735700 0.000005 -0.000001 85.415600 88.334100 -82.768700 8.984550 -0.406207 -0.000000 -4.426820 -0.547506 5.275930 16.377300 -0.000001 -0.000001 8.393580 5.798070 -9.423950 6.456720 -0.000001 -0.000000 10.968100 4.729260 -10.894400 12.994200 -0.242716 4.980390 -92.537900 7.518710 -71.286600 5.348090 -0.000007 -0.000001 -73.387100 -8.552190 -1.555490 24.328600 0.000019 0.000005 41.170200 -38.780500 -125.611000 22.291600 -0.000001 0.000005 58.998800 4.545680 15.854300 12.994500 -0.242716 -4.980390 88.208200 5.750170 -72.660300 -5.348130 -0.000001 -0.000004 -70.239200 29.696900 -2.658540 -24.328900 0.000322 -0.000009 2.481830 8.419980 -16.495500 -22.291500 -0.000108 -0.000004 0.232494 5.260740 1.147220 -2.192480 -6.469440 -0.000000 -172.308000 -1.415460 -5.574890 39.081100 -0.000007 -0.000012 0.251901 -0.527185 25.539900 40.985400 -0.000006 -0.000013 -1.072460 7.448820 -74.003300 11.754300 -0.000000 0.000003 0.000378 0.160997 -10.047200 -2.192510 6.469440 -0.000001 -170.421000 4.197340 -179.286000 -39.081100 -0.002282 -0.040193 0.084203 -0.333995 13.611200 -40.985400 0.000008 0.000006 4.290810 0.835777 -69.212300 -11.754300 -0.000006 -0.000006 -0.008232 0.257586 -6.111740
0.000000 0.000000 0.000000 0.000000 0.000000 -0.000000 -3.634090 92.395400 -1.469020 84.837900 -3.142650 1.120090 15.735700 0.000005 -0.000001 85.247700 88.338400 -82.595600 8.984550 -0.406207 -0.000000 -4.435870 -0.557286 5.286010 16.377300 -0.000001 -0.000001 8.433860 5.836230 -9.454540 6.456720 -0.000001 -0.000000 11.044900 4.776910 -11.053000 12.994200 -0.242716 4.980390 -92.520900 7.475810 -71.305300 5.348090 -0.000007 -0.000001 -73.868300 -10.617200 -1.784670 24.328600 0.000019 0.000005 31.389900 -32.560300 -131.414000 22.291600 -0.000001 0.000005 56.514400 4.315690 19.553000 12.994500 -0.242716 -4.980390 88.222000 5.720480 -72.702200 -5.348130 -0.000001 -0.000004 -70.258500 29.778400 -2.633900 -24.328900 0.000322 -0.000009 2.462430 8.387800 -16.432400 -22.291500 -0.000108 -0.000004 0.171189 5.261940 1.115240 -2.192480 -6.469440 -0.000000 -172.303000 -1.447420 -5.569550 39.081100 -0.000007 -0.000012 0.257780 -0.538527 25.579800 40.985400 -0.000006 -0.000013 -0.993362 7.419720 -74.021100 11.754300 -0.000000 0.000003 0.000552 0.157755 -10.178800 -2.192510 6.469440 -0.000001 -170.386000 4.167110 -179.265000 -39.081100 -0.002282 -0.040193 0.086153 -0.341920 13.616000 -40.985400 0.000008 0.000006 4.466300 0.801916 -69.256000 -11.754300 -0.000006 -0.000006 -0.008439 0.259245 -6.043970
0.000000 0.000000 0.000000 0.000000 0.000000 -0.000000 -3.640520 92.394600 -1.468800 84.845800 -3.154780 1.128170 15.735700 0.000005 -0.000001 85.306100 88.335600 -82.667500 8.984550 -0.406207 -0.000000 -4.430210 -0.552797 5.259170 16.377300 -0.000001 -0.000001 8.386710 5.866740 -9.459730 6.456720 -0.000001 -0.000000 11.119300 4.827660 -11.060300 12.994200 -0.242716 4.980390 -92.510500 7.434030 -71.279900 5.348090 -0.000007 -0.000001 -74.164000 -12.042900 -1.968800 24.328600 0.000019 0.000005 22.358100 -25.303100 -136.100000 22.291600 -0.000001 0.000005 56.751000 4.162820 21.862600 12.994500 -0.242716 -4.980390 88.219000 5.731150 -72.704500 -5.348130 -0.000001 -0.000004 -70.261000 29.772500 -2.582320 -24.328900 0.000322 -0.000009 2.475020 8.436400 -16.422600 -22.291500 -0.000108 -0.000004 0.202128 5.261300 1.132360 -2.192480 -6.469440 -0.000000 -172.302000 -1.447080 -5.559870 39.081100 -0.000007 -0.000012 0.253583 -0.529926 25.572700 40.985400 -0.000006 -0.000013 -1.007250 7.385300 -73.998700 11.754300 -0.000000 0.000003 0.000525 0.158266 -10.158100 -2.192510 6.469440 -0.000001 -170.408000 4.270420 -179.288000 -39.081100 -0.002282 -0.040193 0.086232 -0.340976 13.664900 -40.985400 0.000008 0.000006 4.451850 0.940586 -69.271700 -11.754300 -0.000006 -0.000006 -0.008198 0.257305 -6.123220
0.000000 0.000000 0.000000 0.000000 0.000000 -0.000000 -3.658680 92.395600 -1.464920 84.833700 -3.180420 1.124480 15.735700 0.000005 -0.000001 85.874600 88.341000 -83.260600 8.984550 -0.406207 -0.000000 -4.439470 -0.516716 5.211250 16.377300 -0.000001 -0.000001 8.428460 5.866270 -9.374260 6.456720 -0.000001 -0.000000 11.103400 4.809170 -11.011800 12.994200 -0.242716 4.980390 -92.507700 7.402830 -71.226700 5.348090 -0.000007 -0.000001 -74.212600 -12.192500 -1.911130 24.328600 0.000019 0.000005 18.334900 -21.482300 -137.858000 22.291600 -0.000001 0.000005 58.605800 4.110470 22.634600 12.994500 -0.242716 -4.980390 88.208000 5.771820 -72.718600 -5.348130 -0.000001 -0.000004 -70.273600 29.678600 -2.443740 -24.328900 0.000322 -0.000009 2.471500 8.408720 -16.451100 -22.291500 -0.000108 -0.000004 0.206540 5.260370 1.157170 -2.192480 -6.469440 -0.000000 -172.273000 -1.449700 -5.548530 39.081100 -0.000007 -0.000012 0.252805 -0.528347 25.570800 40.985400 -0.000006 -0.000013 -1.032140 7.403570 -74.037600 11.754300 -0.000000 0.000003 0.000369 0.161163 -10.040400 -2.192510 6.469440 -0.000001 -170.373000 4.146000 -179.271000 -39.081100 -0.002282 -0.040193 0.086047 -0.341022 13.633800 -40.985400 0.000008 0.000006 4.395680 0.803224 -69.232900 -11.754300 -0.000006 -0.000006 -0.008385 0.258812 -6.061670
0.000000 0.000000 0.000000 0.000000 0.000000 -0.000000 -3.667390 92.394800 -1.463370 84.819700 -3.212080 1.113320 15.735700 0.000005 -0.000001 87.017700 88.341600 -84.429500 8.984550 -0.406207 -0.000000 -4.438400 -0.447861 5.162210 16.377300 -0.000001 -0.000001 8.365940 5.861920 -9.290090 6.456720 -0.000001 -0.000000 11.180700 4.809990 -10.948400 12.994200 -0.242716 4.980390 -92.521200 7.428970 -71.194100 5.348090 -0.000007 -0.000001 -74.007100 -10.992500 -1.525830 24.328600 0.000019 0.000005 20.901000 -23.946500 -136.745000 22.291600 -0.000001 0.000005 59.960100 4.171460 21.740100 12.994500 -0.242716 -4.980390 88.212000 5.754000 -72.705600 -5.348130 -0.000001 -0.000004 -70.344200 29.476700 -2.385520 -24.328900 0.000322 -0.000009 2.508610 8.593670 -16.347500 -22.291500 -0.000108 -0.000004 0.150313 5.261610 1.123790 -2.192480 -6.469440 -0.000000 -172.254000 -1.450020 -5.557060 39.081100 -0.000007 -0.000012 0.254080 -0.530988 25.571800 40.985400 -0.000006 -0.000013 -1.049260 7.392620 -73.984400 11.754300 -0.000000 0.000003 0.000647 0.155920 -10.253300 -2.192510 6.469440 -0.000001 -170.364000 4.201650 -179.277000 -39.081100 -0.002282 -0.040193 0.085350 -0.338191 13.632100 -40.985400 0.000008 0.000006 4.372310 0.886660 -69.215300 -11.754300 -0.000006 -0.000006 -0.008380 0.258778 -6.063060
0.000000 0.000000 0.000000 0.000000 0.000000 -0.000000 -3.678700 92.392500 -1.461670 84.801400 -3.189130 1.100110 15.735700 0.000005 -0.000001 87.724000 88.343000 -85.168800 8.984550 -0.406207 -0.000000 -4.440650 -0.403472 5.097930 16.377300 -0.000001 -0.000001 8.386190 5.845060 -9.239700 6.456720 -0.000001 -0.000000 11.168600 4.783210 -10.818900 12.994200 -0.242716 4.980390 -92.549500 7.552580 -71.285100 5.348090 -0.000007 -0.000001 -73.501000 -8.934600 -0.949252 24.328600 0.000019 0.000005 28.128600 -30.335800 -133.374000 22.291600 -0.000001 0.000005 61.350000 4.325410 19.406500 12.994500 -0.242716 -4.980390 88.212700 5.750080 -72.700300 -5.348130 -0.000001 -0.000004 -70.388300 29.454100 -2.325730 -24.328900 0.000322 -0.000009 2.521160 8.683000 -16.266100 -22.291500 -0.000108 -0.000004 0.148536 5.261280 1.132750 -2.192480 -6.469440 -0.000000 -172.233000 -1.452120 -5.590470 39.081100 -0.000007 -0.000012 0.257459 -0.536971 25.616600 40.985400 -0.000006 -0.000013 -1.098660 7.401070 -74.036300 11.754300 -0.000000 0.000003 0.000498 0.158780 -10.137200 -2.192510 6.469440 -0.000001 -170.334000 4.196130 -179.271000 -39.081100 -0.002282 -0.040193 0.085461 -0.339353 13.604800 -40.985400 0.000008 0.000006 4.427350 0.922532 -69.239700 -11.754300 -0.000006 -0.000006 -0.008293 0.258075 -6.091790
0.000000 0.000000 0.000000 0.000000 0.000000 -0.000000 -3.683620 92.381700 -1.466050 84.810600 -3.189490 1.105150 15.735700 0.000005 -0.000001 88.008100 88.325900 -85.491700 8.984550 -0.406207 -0.000000 -4.406430 -0.383396 5.021220 16.377300 -0.000001 -0.000001 8.338210 5.849090 -9.282820 6.456720 -0.000001 -0.000000 11.168800 4.753640 -10.662200 12.994200 -0.242716 4.980390 -92.576700 7.623640 -71.262100 5.348090 -0.000007 -0.000001 -72.951800 -6.789060 -0.500458 24.328600 0.000019 0.000005 37.478500 -37.182200 -128.246000 22.291600 -0.000001 0.000005 63.107100 4.516560 16.333200 12.994500 -0.242716 -4.980390 88.218800 5.734370 -72.711700 -5.348130 -0.000001 -0.000004 -70.427000 29.415000 -2.315400 -24.328900 0.000322 -0.000009 2.503390 8.643370 -16.227100 -22.291500 -0.000108 -0.000004 0.057293 5.262640 1.096550 -2.192480 -6.469440 -0.000000 -172.248000 -1.432560 -5.603350 39.081100 -0.000007 -0.000012 0.257469 -0.536256 25.647200 40.985400 -0.000006 -0.000013 -0.968332 7.352960 -74.060000 11.754300 -0.000000 0.000003 0.000525 0.158264 -10.158100 -2.192510 6.469440 -0.000001 -170.345000 4.339740 -179.304000 -39.081100 -0.002282 -0.040193 0.087751 -0.346833 13.679800 -40.985400 0.000008 0.000006 4.545070 1.008140 -69.297200 -11.754300 -0.000006 -0.000006 -0.008211 0.257410 -6.118950
0.000000 0.000000 0.000000 0.000000 0.000000 -0.000000 -3.692800 92.382300 -1.452120 84.794200 -3.112130 1.116770 15.735700 0.000005 -0.000001 88.204000 88.310300 -85.703500 8.984550 -0.406207 -0.000000 -4.375300 -0.370571 4.989750 16.377300 -0.000001 -0.000001 8.368660 5.816770 -9.336440 6.456720 -0.000001 -0.000000 11.163000 4.686210 -10.673300 12.994200 -0.242716 4.980390 -92.598200 7.683630 -71.252800 5.348090 -0.000007 -0.000001 -72.528100 -5.412980 -0.284641 24.328600 0.000019 0.000005 46.139200 -42.160600 -122.823000 22.291600 -0.000001 0.000005 64.186100 4.745870 12.326900 12.994500 -0.242716 -4.980390 88.212300 5.736430 -72.658600 -5.348130 -0.000001 -0.000004 -70.404000 29.484900 -2.277370 -24.328900 0.000322 -0.000009 2.499160 8.569990 -16.331400 -22.291500 -0.000108 -0.000004 0.209233 5.259830 1.171690 -2.192480 -6.469440 -0.000000 -172.222000 -1.388560 -5.599680 39.081100 -0.000007 -0.000012 0.258700 -0.538577 25.657200 40.985400 -0.000006 -0.000013 -0.969127 7.387970 -74.109400 11.754300 -0.000000 0.000003 0.000408 0.160454 -10.069200 -2.192510 6.469440 -0.000001 -170.340000 4.396480 -179.288000 -39.081100 -0.002282 -0.040193 0.085649 -0.338047 13.685500 -40.985400 0.000008 0.000006 4.414910 1.048530 -69.298900 -11.754300 -0.000006 -0.000006 -0.008303 0.258157 -6.088420
